<mxfile host="www.draw.io" modified="2019-11-20T02:42:32.683Z" agent="Mozilla/5.0 (Macintosh; Intel Mac OS X 10_14_5) AppleWebKit/537.36 (KHTML, like Gecko) Chrome/77.0.3865.90 Safari/537.36" etag="6kVqMFBS6tiHywEDSHDV" version="12.2.6" type="github" pages="1">
  <diagram id="TMTRU6lysNYEcFptpyK2" name="Page-1">
    <mxGraphModel dx="2066" dy="1130" grid="1" gridSize="10" guides="1" tooltips="1" connect="1" arrows="1" fold="1" page="1" pageScale="1" pageWidth="827" pageHeight="1169" math="0" shadow="0">
      <root>
        <mxCell id="0"/>
        <mxCell id="1" parent="0"/>
        <mxCell id="__tdrhZyc3n9IKS1ltD7-4" value="&lt;p style=&quot;font-size: 14px&quot;&gt;缓存伪代码：&lt;/p&gt;url = &quot;https://.../&lt;span style=&quot;color: rgb(0 , 0 , 0) ; font-size: 14px&quot;&gt;ups/B/720P&quot;&lt;br style=&quot;font-size: 14px&quot;&gt;&lt;/span&gt;cacheFile = &lt;b&gt;query&lt;/b&gt;(url, cvsid)&lt;br style=&quot;font-size: 14px&quot;&gt;imageView.setImage(cacheFile)&lt;br style=&quot;font-size: 14px&quot;&gt;&lt;br style=&quot;font-size: 14px&quot;&gt;&lt;br style=&quot;font-size: 14px&quot;&gt;func &lt;b&gt;query&lt;/b&gt;(url, bussId) {&lt;br style=&quot;font-size: 14px&quot;&gt;&amp;nbsp; // 查询缓存&lt;br style=&quot;font-size: 14px&quot;&gt;&amp;nbsp; info = &lt;b&gt;StorageKit&lt;/b&gt;.get(url)&lt;br style=&quot;font-size: 14px&quot;&gt;&lt;br&gt;&amp;nbsp; &lt;b&gt;StorageKit&lt;/b&gt;.checkExpired(info)&lt;br&gt;&lt;br style=&quot;font-size: 14px&quot;&gt;&amp;nbsp; // 判断索引数和文件&lt;br style=&quot;font-size: 14px&quot;&gt;&amp;nbsp; if info.&lt;b&gt;indexCount&lt;/b&gt; &amp;gt; 0&amp;nbsp;&amp;amp;&amp;amp; info.&lt;b&gt;existsDisk&lt;/b&gt;&amp;nbsp;{&lt;br style=&quot;font-size: 14px&quot;&gt;&amp;nbsp; &amp;nbsp; return info.diskFilePath&lt;br style=&quot;font-size: 14px&quot;&gt;&amp;nbsp; }&lt;br style=&quot;font-size: 14px&quot;&gt;&amp;nbsp;&amp;nbsp;&lt;br style=&quot;font-size: 14px&quot;&gt;&amp;nbsp; // 远程下载&lt;br style=&quot;font-size: 14px&quot;&gt;&amp;nbsp; filePath = &lt;b&gt;StorageKit&lt;/b&gt;.download(url)&lt;br style=&quot;font-size: 14px&quot;&gt;&lt;br style=&quot;font-size: 14px&quot;&gt;&amp;nbsp; // 插入索引&lt;br style=&quot;font-size: 14px&quot;&gt;&amp;nbsp; createtime = time.now()&lt;br style=&quot;font-size: 14px&quot;&gt;&amp;nbsp;&amp;nbsp;&lt;b&gt;StorageKit&lt;/b&gt;.addIndex(url, createtime, bussId)&lt;br style=&quot;font-size: 14px&quot;&gt;&lt;br style=&quot;font-size: 14px&quot;&gt;&amp;nbsp; return filePath&lt;br style=&quot;font-size: 14px&quot;&gt;}" style="shape=note;whiteSpace=wrap;html=1;backgroundOutline=1;darkOpacity=0.05;fontSize=14;align=left;fontFamily=Courier New;fontColor=#1C1C1C;spacing=14;fontStyle=0;labelBackgroundColor=#FFFFFF;" parent="1" vertex="1">
          <mxGeometry x="60" y="230" width="430" height="530" as="geometry"/>
        </mxCell>
        <mxCell id="__tdrhZyc3n9IKS1ltD7-7" style="edgeStyle=orthogonalEdgeStyle;rounded=0;orthogonalLoop=1;jettySize=auto;html=1;fontSize=12;" parent="1" source="__tdrhZyc3n9IKS1ltD7-6" target="__tdrhZyc3n9IKS1ltD7-2" edge="1">
          <mxGeometry relative="1" as="geometry"/>
        </mxCell>
        <mxCell id="__tdrhZyc3n9IKS1ltD7-13" value="找出过期的索引" style="text;html=1;resizable=0;points=[];align=center;verticalAlign=middle;labelBackgroundColor=#ffffff;fontSize=14;fontFamily=Courier New;fontColor=#1C1C1C;" parent="__tdrhZyc3n9IKS1ltD7-7" vertex="1" connectable="0">
          <mxGeometry y="4" relative="1" as="geometry">
            <mxPoint x="2" y="4" as="offset"/>
          </mxGeometry>
        </mxCell>
        <mxCell id="__tdrhZyc3n9IKS1ltD7-8" style="edgeStyle=orthogonalEdgeStyle;rounded=0;orthogonalLoop=1;jettySize=auto;html=1;entryX=0.25;entryY=1;entryDx=0;entryDy=0;fontSize=12;" parent="1" source="__tdrhZyc3n9IKS1ltD7-6" target="__tdrhZyc3n9IKS1ltD7-1" edge="1">
          <mxGeometry relative="1" as="geometry"/>
        </mxCell>
        <mxCell id="__tdrhZyc3n9IKS1ltD7-9" value="删除" style="text;html=1;resizable=0;points=[];align=center;verticalAlign=middle;labelBackgroundColor=#ffffff;fontSize=12;" parent="__tdrhZyc3n9IKS1ltD7-8" vertex="1" connectable="0">
          <mxGeometry x="-0.2594" relative="1" as="geometry">
            <mxPoint as="offset"/>
          </mxGeometry>
        </mxCell>
        <mxCell id="__tdrhZyc3n9IKS1ltD7-6" value="后台回扫线程" style="ellipse;whiteSpace=wrap;html=1;fontSize=18;align=center;fontStyle=1" parent="1" vertex="1">
          <mxGeometry x="778.5" y="790" width="225" height="120" as="geometry"/>
        </mxCell>
        <mxCell id="__tdrhZyc3n9IKS1ltD7-11" value="" style="group;fontSize=14;" parent="1" vertex="1" connectable="0">
          <mxGeometry x="1250" y="260" width="360" height="410" as="geometry"/>
        </mxCell>
        <mxCell id="__tdrhZyc3n9IKS1ltD7-1" value="&lt;br style=&quot;font-size: 14px;&quot;&gt;&lt;pre style=&quot;overflow-wrap: break-word; white-space: pre-wrap; font-size: 14px;&quot;&gt;头像类的：&lt;br style=&quot;font-size: 14px;&quot;&gt;    avatar/$md5{uid}/a.png&lt;br style=&quot;font-size: 14px;&quot;&gt;            &lt;br style=&quot;font-size: 14px;&quot;&gt;ups类型类:&lt;br style=&quot;font-size: 14px;&quot;&gt;    ups/${filemd5}/ origin&lt;br style=&quot;font-size: 14px;&quot;&gt;                    1600P&lt;br style=&quot;font-size: 14px;&quot;&gt;                    1080P&lt;br style=&quot;font-size: 14px;&quot;&gt;                    720P&lt;br style=&quot;font-size: 14px;&quot;&gt;&lt;br style=&quot;font-size: 14px;&quot;&gt;云空间类型：&lt;br style=&quot;font-size: 14px;&quot;&gt;    cloud/$md5{uid+filemd5}/origin&lt;br style=&quot;font-size: 14px;&quot;&gt;                            1600P&lt;br style=&quot;font-size: 14px;&quot;&gt;                            1080P&lt;br style=&quot;font-size: 14px;&quot;&gt;                            720P&lt;br style=&quot;font-size: 14px;&quot;&gt;&lt;br style=&quot;font-size: 14px;&quot;&gt;视频转码点播。&lt;br style=&quot;font-size: 14px;&quot;&gt;    vod/${filemd5}/4K/playlist.m3u8&lt;br style=&quot;font-size: 14px;&quot;&gt;    vod/${filemd5}/2K/playlist.m3u8&lt;br style=&quot;font-size: 14px;&quot;&gt;    vod/${filemd5}/HD/playlist.m3u8&lt;br style=&quot;font-size: 14px;&quot;&gt;    vod/${filemd5}/SD/playlist.m3u8&lt;/pre&gt;" style="rounded=0;whiteSpace=wrap;html=1;align=left;spacingTop=0;spacingLeft=0;spacing=20;fontSize=14;" parent="__tdrhZyc3n9IKS1ltD7-11" vertex="1">
          <mxGeometry y="40" width="360" height="370" as="geometry"/>
        </mxCell>
        <mxCell id="__tdrhZyc3n9IKS1ltD7-3" value="磁盘缓存: Disk" style="rounded=1;whiteSpace=wrap;html=1;align=center;fontSize=18;" parent="__tdrhZyc3n9IKS1ltD7-11" vertex="1">
          <mxGeometry x="110" width="160" height="60" as="geometry"/>
        </mxCell>
        <mxCell id="__tdrhZyc3n9IKS1ltD7-12" value="" style="group;spacing=15;fontFamily=Verdana;" parent="1" vertex="1" connectable="0">
          <mxGeometry x="572" y="290" width="638" height="360" as="geometry"/>
        </mxCell>
        <mxCell id="__tdrhZyc3n9IKS1ltD7-2" value="&amp;nbsp; &amp;nbsp; &amp;nbsp; &amp;nbsp;url&amp;nbsp; &amp;nbsp; &amp;nbsp; &amp;nbsp; &amp;nbsp; &amp;nbsp; &amp;nbsp; &amp;nbsp; &amp;nbsp; &amp;nbsp;|&amp;nbsp; &amp;nbsp; createtime&amp;nbsp; &amp;nbsp; |&amp;nbsp; bussId&amp;nbsp; &amp;nbsp; &amp;nbsp; &amp;nbsp;|&amp;nbsp; &amp;nbsp; bussType |&amp;nbsp; &amp;nbsp; &amp;nbsp;bussSubTypes&lt;br style=&quot;font-size: 14px&quot;&gt;&amp;nbsp; &amp;nbsp; &amp;nbsp;---------------------------------------------------------------&lt;br style=&quot;font-size: 14px&quot;&gt;&amp;nbsp; &amp;nbsp; &amp;nbsp;ups/A/720P&amp;nbsp; &amp;nbsp; &amp;nbsp; &amp;nbsp;| 15341...&amp;nbsp; &amp;nbsp; &amp;nbsp; &amp;nbsp; &amp;nbsp; &amp;nbsp;|&amp;nbsp; cvsid A&amp;nbsp; &amp;nbsp; &amp;nbsp; &amp;nbsp;|&amp;nbsp; &amp;nbsp; cvs&amp;nbsp; &amp;nbsp; &amp;nbsp; &amp;nbsp; &amp;nbsp; |&amp;nbsp; &amp;nbsp; &amp;nbsp;thumb&lt;br style=&quot;font-size: 14px&quot;&gt;&amp;nbsp; &amp;nbsp; &amp;nbsp;ups/B/720P&amp;nbsp; &amp;nbsp; &amp;nbsp; &amp;nbsp;| 15341...&amp;nbsp; &amp;nbsp; &amp;nbsp; &amp;nbsp; &amp;nbsp; &amp;nbsp;|&amp;nbsp; cvsid B&amp;nbsp; &amp;nbsp; &amp;nbsp; &amp;nbsp;|&amp;nbsp; &amp;nbsp; cvs&amp;nbsp; &amp;nbsp; &amp;nbsp; &amp;nbsp; &amp;nbsp; |&amp;nbsp; &amp;nbsp; &amp;nbsp;preview&lt;br style=&quot;font-size: 14px&quot;&gt;&amp;nbsp; &amp;nbsp; &amp;nbsp;ups/B/720P&amp;nbsp; &amp;nbsp; &amp;nbsp; &amp;nbsp;| 15341...&amp;nbsp; &amp;nbsp; &amp;nbsp; &amp;nbsp; &amp;nbsp; &amp;nbsp;|&amp;nbsp; cvsid C&amp;nbsp; &amp;nbsp; &amp;nbsp; &amp;nbsp;|&amp;nbsp; &amp;nbsp; cvs&amp;nbsp; &amp;nbsp; &amp;nbsp; &amp;nbsp; &amp;nbsp; |&amp;nbsp; &amp;nbsp; &amp;nbsp;preview&lt;br style=&quot;font-size: 14px&quot;&gt;&amp;nbsp; &amp;nbsp; &amp;nbsp;cloud/D/1080P&amp;nbsp; &amp;nbsp;| 15341...&amp;nbsp; &amp;nbsp; &amp;nbsp; &amp;nbsp; &amp;nbsp; &amp;nbsp;|&amp;nbsp; albumid A&amp;nbsp; &amp;nbsp;|&amp;nbsp; &amp;nbsp; album&amp;nbsp; &amp;nbsp; &amp;nbsp; &amp;nbsp;|&amp;nbsp; &amp;nbsp; thumb, like&lt;br&gt;&amp;nbsp; &amp;nbsp; &amp;nbsp;user/E/1080P&amp;nbsp; &amp;nbsp; &amp;nbsp;| 15341...&amp;nbsp; &amp;nbsp; &amp;nbsp; &amp;nbsp; &amp;nbsp; &amp;nbsp;|&amp;nbsp; uid A&amp;nbsp; &amp;nbsp; &amp;nbsp; &amp;nbsp; &amp;nbsp; |&amp;nbsp; &amp;nbsp; user&amp;nbsp; &amp;nbsp; &amp;nbsp; &amp;nbsp; &amp;nbsp;|&amp;nbsp; &amp;nbsp; avatar&lt;br&gt;&lt;br&gt;&lt;br&gt;&amp;nbsp; &amp;nbsp; &lt;b&gt;&amp;nbsp;索引记录了不同的业务(bussId) 的过期时间&lt;br&gt;&amp;nbsp; &amp;nbsp; &amp;nbsp;即多个会话或多个相册使用同一份disk文件&lt;br&gt;&amp;nbsp; &amp;nbsp; &amp;nbsp;通过记录防止删除冲突问题&lt;br&gt;&lt;br&gt;&amp;nbsp; &amp;nbsp; &amp;nbsp;&lt;/b&gt;&lt;font color=&quot;#ff0000&quot;&gt;&lt;b&gt;bussType 决定一个大块业务的策略&lt;br&gt;&amp;nbsp; &amp;nbsp; &amp;nbsp;bussSubTypes 针对子业务进行标记，比如like会使用无限期策略&lt;/b&gt;&lt;/font&gt;&lt;b&gt;&lt;br&gt;&lt;/b&gt;" style="shape=internalStorage;whiteSpace=wrap;html=1;backgroundOutline=1;fontFamily=Lucida Console;align=left;spacing=21;fontSize=14;" parent="__tdrhZyc3n9IKS1ltD7-12" vertex="1">
          <mxGeometry y="40" width="638" height="320" as="geometry"/>
        </mxCell>
        <mxCell id="__tdrhZyc3n9IKS1ltD7-10" value="索引: IndexDB" style="rounded=1;whiteSpace=wrap;html=1;align=center;fontSize=18;" parent="__tdrhZyc3n9IKS1ltD7-12" vertex="1">
          <mxGeometry x="206.75925925925924" width="189.03703703703704" height="50" as="geometry"/>
        </mxCell>
        <mxCell id="__tdrhZyc3n9IKS1ltD7-15" style="edgeStyle=orthogonalEdgeStyle;rounded=0;orthogonalLoop=1;jettySize=auto;html=1;fontFamily=Courier New;fontSize=14;fontColor=#1C1C1C;" parent="1" source="__tdrhZyc3n9IKS1ltD7-14" target="__tdrhZyc3n9IKS1ltD7-6" edge="1">
          <mxGeometry relative="1" as="geometry"/>
        </mxCell>
        <mxCell id="__tdrhZyc3n9IKS1ltD7-14" value="用户主动删除" style="rounded=0;whiteSpace=wrap;html=1;fontFamily=Courier New;fontSize=14;fontColor=#1C1C1C;align=center;" parent="1" vertex="1">
          <mxGeometry x="520" y="820" width="120" height="60" as="geometry"/>
        </mxCell>
        <mxCell id="__tdrhZyc3n9IKS1ltD7-17" style="edgeStyle=orthogonalEdgeStyle;rounded=0;orthogonalLoop=1;jettySize=auto;html=1;entryX=0.5;entryY=1;entryDx=0;entryDy=0;fontFamily=Courier New;fontSize=14;fontColor=#1C1C1C;" parent="1" source="__tdrhZyc3n9IKS1ltD7-16" target="__tdrhZyc3n9IKS1ltD7-6" edge="1">
          <mxGeometry relative="1" as="geometry"/>
        </mxCell>
        <mxCell id="__tdrhZyc3n9IKS1ltD7-16" value="定时删除" style="rounded=0;whiteSpace=wrap;html=1;fontFamily=Courier New;fontSize=14;fontColor=#1C1C1C;align=center;" parent="1" vertex="1">
          <mxGeometry x="520" y="900" width="120" height="60" as="geometry"/>
        </mxCell>
        <mxCell id="__tdrhZyc3n9IKS1ltD7-19" style="edgeStyle=orthogonalEdgeStyle;rounded=0;orthogonalLoop=1;jettySize=auto;html=1;entryX=0.5;entryY=1;entryDx=0;entryDy=0;fontFamily=Courier New;fontSize=18;fontColor=#1C1C1C;" parent="1" source="__tdrhZyc3n9IKS1ltD7-18" target="__tdrhZyc3n9IKS1ltD7-6" edge="1">
          <mxGeometry relative="1" as="geometry"/>
        </mxCell>
        <mxCell id="__tdrhZyc3n9IKS1ltD7-18" value="系统超容删除" style="rounded=0;whiteSpace=wrap;html=1;fontFamily=Courier New;fontSize=14;fontColor=#1C1C1C;align=center;" parent="1" vertex="1">
          <mxGeometry x="520" y="980" width="120" height="60" as="geometry"/>
        </mxCell>
      </root>
    </mxGraphModel>
  </diagram>
</mxfile>
